<svg width="38" height="34" viewBox="0 0 38 34" fill="none" xmlns="http://www.w3.org/2000/svg">
<path d="M27.7087 9.20825H27.7245M11.0837 2.83325H26.917C31.2892 2.83325 34.8337 6.00457 34.8337 9.91659V24.0833C34.8337 27.9953 31.2892 31.1666 26.917 31.1666H11.0837C6.7114 31.1666 3.16699 27.9953 3.16699 24.0833V9.91659C3.16699 6.00457 6.7114 2.83325 11.0837 2.83325ZM25.3337 16.1074C25.5291 17.2864 25.304 18.4906 24.6904 19.5485C24.0769 20.6065 23.1061 21.4644 21.9162 22.0003C20.7263 22.5362 19.3779 22.7227 18.0627 22.5333C16.7474 22.344 15.5324 21.7884 14.5905 20.9456C13.6485 20.1028 13.0276 19.0157 12.8159 17.8389C12.6043 16.6621 12.8128 15.4556 13.4117 14.3909C14.0106 13.3263 14.9695 12.4577 16.1519 11.9088C17.3343 11.3598 18.6801 11.1584 19.9978 11.3333C21.342 11.5116 22.5863 12.072 23.5472 12.9317C24.508 13.7914 25.1343 14.9048 25.3337 16.1074Z" stroke="white" stroke-width="4" stroke-linecap="round" stroke-linejoin="round"/>
</svg>
