<svg width="38" height="34" viewBox="0 0 38 34" fill="none" xmlns="http://www.w3.org/2000/svg">
<path d="M27.7083 9.20825H27.7241M11.0833 2.83325H26.9166C31.2889 2.83325 34.8333 6.00457 34.8333 9.91659V24.0833C34.8333 27.9953 31.2889 31.1666 26.9166 31.1666H11.0833C6.71104 31.1666 3.16663 27.9953 3.16663 24.0833V9.91659C3.16663 6.00457 6.71104 2.83325 11.0833 2.83325ZM25.3333 16.1074C25.5287 17.2864 25.3036 18.4906 24.6901 19.5485C24.0765 20.6065 23.1058 21.4644 21.9159 22.0003C20.726 22.5362 19.3775 22.7227 18.0623 22.5333C16.7471 22.344 15.5321 21.7884 14.5901 20.9456C13.6482 20.1028 13.0272 19.0157 12.8156 17.8389C12.6039 16.6621 12.8124 15.4556 13.4113 14.3909C14.0102 13.3263 14.9691 12.4577 16.1515 11.9088C17.3339 11.3598 18.6797 11.1584 19.9975 11.3333C21.3416 11.5116 22.586 12.072 23.5468 12.9317C24.5076 13.7914 25.134 14.9048 25.3333 16.1074Z" stroke="black" stroke-width="4" stroke-linecap="round" stroke-linejoin="round"/>
</svg>
