<svg width="87" height="17" viewBox="0 0 87 17" fill="none" xmlns="http://www.w3.org/2000/svg">
<path d="M3.55525 17C3.36325 17 3.20325 16.932 3.07525 16.796L0.67525 14.396C0.53925 14.268 0.47125 14.108 0.47125 13.916V1.304C0.47125 1.104 0.57125 1.004 0.77125 1.004H4.16725C4.36725 1.004 4.46725 1.104 4.46725 1.304V13.784H7.15525V1.304C7.15525 1.104 7.25525 1.004 7.45525 1.004H10.8513C11.0513 1.004 11.1512 1.104 11.1512 1.304V13.916C11.1512 14.108 11.0833 14.268 10.9473 14.396L8.54725 16.796C8.41925 16.932 8.25925 17 8.06725 17H3.55525ZM14.3416 17C14.1416 17 14.0416 16.9 14.0416 16.7V4.1C14.0416 3.9 14.1416 3.8 14.3416 3.8H17.5336C17.7336 3.8 17.8336 3.9 17.8336 4.1V16.7C17.8336 16.9 17.7336 17 17.5336 17H14.3416ZM14.2816 2.804C14.1216 2.804 14.0416 2.724 14.0416 2.564V1.04C14.0416 0.88 14.1216 0.8 14.2816 0.8H17.6176C17.7616 0.8 17.8336 0.88 17.8336 1.04V2.564C17.8336 2.724 17.7616 2.804 17.6176 2.804H14.2816ZM23.6275 17C23.4435 17 23.2835 16.932 23.1475 16.796L20.7475 14.396C20.6115 14.268 20.5435 14.108 20.5435 13.916V4.1C20.5435 3.9 20.6435 3.8 20.8435 3.8H24.0475C24.2475 3.8 24.3475 3.9 24.3475 4.1V14H26.5435V4.1C26.5435 3.9 26.6435 3.8 26.8435 3.8H30.0475C30.2475 3.8 30.3475 3.9 30.3475 4.1V13.916C30.3475 14.108 30.2795 14.268 30.1435 14.396L27.7435 16.796C27.6155 16.932 27.4555 17 27.2635 17H23.6275ZM36.1431 17C35.9591 17 35.7991 16.932 35.6631 16.796L33.2631 14.396C33.1271 14.268 33.0591 14.108 33.0591 13.916V6.884C33.0591 6.692 33.1271 6.532 33.2631 6.404L35.6631 4.004C35.7991 3.868 35.9591 3.8 36.1431 3.8H42.5631C42.7631 3.8 42.8631 3.9 42.8631 4.1V16.7C42.8631 16.9 42.7631 17 42.5631 17H40.0671C39.9631 17 39.8831 16.98 39.8271 16.94C39.7791 16.9 39.7231 16.852 39.6591 16.796L39.0591 16.196L38.4591 16.796C38.3311 16.932 38.1711 17 37.9791 17H36.1431ZM37.5471 14.204H38.3871C38.6431 14.204 38.8191 14.152 38.9151 14.048C39.0111 13.944 39.0591 13.76 39.0591 13.496V6.596H37.5471C37.2831 6.596 37.1031 6.648 37.0071 6.752C36.9111 6.856 36.8631 7.04 36.8631 7.304V13.496C36.8631 13.76 36.9111 13.944 37.0071 14.048C37.1031 14.152 37.2831 14.204 37.5471 14.204ZM50.1948 17C50.0108 17 49.8508 16.948 49.7148 16.844L47.7588 15.056L45.7788 12.476C45.6908 12.364 45.6348 12.296 45.6108 12.272C45.5868 12.24 45.5748 12.168 45.5748 12.056V5.936C45.5748 5.824 45.5868 5.752 45.6108 5.72C45.6428 5.688 45.6988 5.62 45.7788 5.516L47.6148 3.14L49.7148 1.16C49.8028 1.088 49.8708 1.044 49.9188 1.028C49.9748 1.012 50.0668 1.004 50.1948 1.004H53.1588C53.3588 1.004 53.4588 1.104 53.4588 1.304V3.224C53.4588 3.288 53.4508 3.356 53.4348 3.428C53.4268 3.492 53.3868 3.548 53.3148 3.596L51.0588 5.144L49.5828 7.04V10.964L51.0828 12.86L53.3148 14.396C53.3788 14.436 53.4188 14.484 53.4348 14.54C53.4508 14.596 53.4588 14.656 53.4588 14.72V16.7C53.4588 16.9 53.3588 17 53.1588 17H50.1948ZM56.0838 17C55.8838 17 55.7838 16.9 55.7838 16.7V1.304C55.7838 1.104 55.8838 1.004 56.0838 1.004H59.2878C59.4878 1.004 59.5878 1.104 59.5878 1.304V3.8H62.5038C62.6878 3.8 62.8478 3.868 62.9838 4.004L65.3838 6.404C65.5198 6.532 65.5878 6.692 65.5878 6.884V16.7C65.5878 16.9 65.4878 17 65.2878 17H62.0838C61.8838 17 61.7838 16.9 61.7838 16.7V7.304C61.7838 6.968 61.6158 6.8 61.2798 6.8H59.5878V16.7C59.5878 16.9 59.4878 17 59.2878 17H56.0838ZM71.3931 17C71.2091 17 71.0491 16.932 70.9131 16.796L68.5131 14.396C68.3771 14.268 68.3091 14.108 68.3091 13.916V6.884C68.3091 6.692 68.3771 6.532 68.5131 6.404L70.9131 4.004C71.0491 3.868 71.2091 3.8 71.3931 3.8H77.8131C78.0131 3.8 78.1131 3.9 78.1131 4.1V16.7C78.1131 16.9 78.0131 17 77.8131 17H75.3171C75.2131 17 75.1331 16.98 75.0771 16.94C75.0291 16.9 74.9731 16.852 74.9091 16.796L74.3091 16.196L73.7091 16.796C73.5811 16.932 73.4211 17 73.2291 17H71.3931ZM72.7971 14.204H73.6371C73.8931 14.204 74.0691 14.152 74.1651 14.048C74.2611 13.944 74.3091 13.76 74.3091 13.496V6.596H72.7971C72.5331 6.596 72.3531 6.648 72.2571 6.752C72.1611 6.856 72.1131 7.04 72.1131 7.304V13.496C72.1131 13.76 72.1611 13.944 72.2571 14.048C72.3531 14.152 72.5331 14.204 72.7971 14.204ZM83.6688 17C83.4848 17 83.3248 16.932 83.1888 16.796L81.1848 14.804C81.0568 14.668 80.9928 14.508 80.9928 14.324V6.596H80.4888C80.2888 6.596 80.1888 6.496 80.1888 6.296V4.1C80.1888 3.9 80.2888 3.8 80.4888 3.8H80.9928V2.3C80.9928 2.1 81.0928 2 81.2928 2H84.4848C84.6848 2 84.7848 2.1 84.7848 2.3V3.8H85.9488C86.1488 3.8 86.2487 3.9 86.2487 4.1V6.296C86.2487 6.496 86.1488 6.596 85.9488 6.596H84.7848V13.004C84.7848 13.156 84.8328 13.28 84.9288 13.376L86.1048 14.564C86.1848 14.636 86.2248 14.756 86.2248 14.924V16.7C86.2248 16.9 86.1248 17 85.9248 17H83.6688Z" fill="white"/>
</svg>
