<svg width="251" height="47" viewBox="0 0 251 47" fill="none" xmlns="http://www.w3.org/2000/svg">
<path d="M9.73504 47C9.17504 47 8.70837 46.8017 8.33504 46.405L1.33504 39.405C0.938373 39.0317 0.740039 38.565 0.740039 38.005V1.22C0.740039 0.636664 1.03171 0.344998 1.61504 0.344998H11.52C12.1034 0.344998 12.395 0.636664 12.395 1.22V37.62H20.235V1.22C20.235 0.636664 20.5267 0.344998 21.11 0.344998H31.015C31.5984 0.344998 31.89 0.636664 31.89 1.22V38.005C31.89 38.565 31.6917 39.0317 31.295 39.405L24.295 46.405C23.9217 46.8017 23.455 47 22.895 47H9.73504ZM41.1951 47C40.6118 47 40.3201 46.7083 40.3201 46.125V1.22C40.3201 0.636664 40.6118 0.344998 41.1951 0.344998H51.1001C51.6835 0.344998 51.9751 0.636664 51.9751 1.22V46.125C51.9751 46.7083 51.6835 47 51.1001 47H41.1951ZM69.3444 47C68.7844 47 68.3177 46.8017 67.9444 46.405L60.9444 39.405C60.5477 39.0317 60.3494 38.565 60.3494 38.005V1.22C60.3494 0.636664 60.6411 0.344998 61.2244 0.344998H71.1294C71.7127 0.344998 72.0044 0.636664 72.0044 1.22V37.62H79.8444V1.22C79.8444 0.636664 80.1361 0.344998 80.7194 0.344998H90.6244C91.2077 0.344998 91.4994 0.636664 91.4994 1.22V38.005C91.4994 38.565 91.3011 39.0317 90.9044 39.405L83.9044 46.405C83.5311 46.8017 83.0644 47 82.5044 47H69.3444ZM100.559 47C99.9762 47 99.6845 46.7083 99.6845 46.125V13.68C99.6845 13.3767 99.8012 13.0267 100.034 12.63L108.329 0.869997C108.586 0.519998 108.959 0.344998 109.449 0.344998H121.034C121.548 0.344998 121.921 0.519998 122.154 0.869997L130.484 12.63C130.718 12.9567 130.834 13.3067 130.834 13.68V46.125C130.834 46.7083 130.543 47 129.959 47H120.054C119.471 47 119.179 46.7083 119.179 46.125V31.25H111.374V46.125C111.374 46.7083 111.083 47 110.499 47H100.559ZM115.259 23.725C117.406 23.725 118.853 23.2583 119.599 22.325C120.369 21.3683 120.754 19.56 120.754 16.9C120.754 14.24 120.369 12.4433 119.599 11.51C118.853 10.5533 117.406 10.075 115.259 10.075C113.136 10.075 111.689 10.5533 110.919 11.51C110.173 12.4433 109.799 14.24 109.799 16.9C109.799 19.56 110.173 21.3683 110.919 22.325C111.689 23.2583 113.136 23.725 115.259 23.725ZM139.906 47C139.323 47 139.031 46.7083 139.031 46.125V1.22C139.031 0.636664 139.323 0.344998 139.906 0.344998H149.811C150.394 0.344998 150.686 0.636664 150.686 1.22V37.655H159.506C160.089 37.655 160.381 37.9467 160.381 38.53V46.125C160.381 46.7083 160.089 47 159.506 47H139.906ZM166.84 47C166.256 47 165.965 46.7083 165.965 46.125V1.22C165.965 0.636664 166.256 0.344998 166.84 0.344998H176.745C177.328 0.344998 177.62 0.636664 177.62 1.22V46.125C177.62 46.7083 177.328 47 176.745 47H166.84ZM186.869 47C186.286 47 185.994 46.7083 185.994 46.125V1.22C185.994 0.636664 186.286 0.344998 186.869 0.344998H206.749C207.309 0.344998 207.776 0.531665 208.149 0.904999L215.149 7.905C215.546 8.30166 215.744 8.76833 215.744 9.305V46.125C215.744 46.7083 215.452 47 214.869 47H204.964C204.381 47 204.089 46.7083 204.089 46.125V9.655H197.649V46.125C197.649 46.7083 197.357 47 196.774 47H186.869ZM225.013 47C224.43 47 224.138 46.7083 224.138 46.125V1.22C224.138 0.636664 224.43 0.344998 225.013 0.344998H249.408C249.992 0.344998 250.283 0.636664 250.283 1.22V8.78C250.283 9.36333 249.992 9.655 249.408 9.655H235.793V19.595H248.218C248.802 19.595 249.093 19.8867 249.093 20.47V26.875C249.093 27.4583 248.802 27.75 248.218 27.75H235.793V37.655H249.408C249.992 37.655 250.283 37.9467 250.283 38.53V46.125C250.283 46.7083 249.992 47 249.408 47H225.013Z" fill="white"/>
</svg>
